<svg xmlns="http://www.w3.org/2000/svg" width="200" height="200" fill="none" xmlns:v="https://vecta.io/nano"><path d="M0 100v100h200V0H0v100zm161.175-7.968c5.08 1.27 8.952 3.524 12.508 7.206 1.84 1.968 4.57 5.556 4.793 6.413.064.254-8.635 6.095-13.905 9.365-.2.127-.952-.7-1.81-1.968-2.572-3.746-5.27-5.365-9.397-5.65-6.063-.413-9.968 2.762-9.936 8.063 0 1.556.222 2.477.857 3.746 1.333 2.762 3.81 4.413 11.587 7.778 14.317 6.16 20.444 10.222 24.254 16 4.254 6.445 5.206 16.73 2.317 24.38-3.174 8.318-11.047 13.968-22.127 15.84-3.428.604-11.555.508-15.238-.158-8.03-1.43-15.65-5.397-20.35-10.604-1.84-2.03-5.428-7.333-5.206-7.714.095-.127.92-.635 1.84-1.174l7.43-4.286 5.746-3.333 1.206 1.777c1.683 2.572 5.365 6.096 7.587 7.27 6.38 3.365 15.143 2.89 19.46-.984 1.84-1.683 2.603-3.43 2.603-6 0-2.317-.286-3.333-1.492-5.08-1.556-2.223-4.73-4.096-13.746-8-10.318-4.445-14.762-7.207-18.826-11.588-2.35-2.54-4.57-6.603-5.492-10-.762-2.825-.952-9.904-.35-12.762 2.127-9.968 9.65-16.92 20.508-18.984 3.524-.667 11.714-.413 15.175.444zm-46.953 8.35l.064 8.2H88.254v73.97H69.84v-73.97H43.8v-8.03c0-4.445.095-8.16.222-8.254.095-.127 15.937-.19 35.143-.16l34.952.095.095 8.16z" fill="#ecf0f1"/></svg>