<svg xmlns="http://www.w3.org/2000/svg" width="200" height="200" fill="none"><g clip-path="url(#A)"><g fill-rule="evenodd"><path d="M186.205 100.768c-29.7.58-23.516 19.386-44.446 24.143-21.264 4.832-24.623-51.938-45.882-51.938S69.9 128.116 43.285 165.977l-.757 1.073L99.603 200l86.602-50v-49.232z" fill="#cbcbcb"/><path d="M186.205 99.054c-9.946-12.762-16.69-27.433-31.197-27.433-25.676 0-18.92 41.892-47.297 41.892S76.35 68.45 44.197 110.81c-10.243 13.497-18.49 28.546-24.966 42.786L99.603 200l86.602-50V99.054z" fill="#ecf0f1"/><path d="M13 116.41c9.743-26.986 13.95-48.84 32.55-48.84 28.378 0 35.135 79.73 59.46 71.62s21.622-51.35 59.46-51.35c7.202 0 14.556 4.41 21.737 11.55V150l-86.602 50L13 150v-33.59z" fill="#cbcbcb"/></g><path d="M99.603 0l86.602 50v100l-86.602 50L13 150V50L99.603 0z" stroke="#ecf0f1" stroke-width="8"/></g><defs><clipPath id="A"><path fill="#fff" d="M0 0h200v200H0z"/></clipPath></defs></svg>