<svg xmlns="http://www.w3.org/2000/svg" width="200" height="200" fill="none" xmlns:v="https://vecta.io/nano"><path d="M27 160.34L51.585 3.853c.68-4.3 6.458-5.307 8.497-1.468L85.46 49.58l10.083-19.194c.78-1.496 2.33-2.435 4.022-2.435s3.242.94 4.02 2.435l68.43 129.953H27z" fill="#cbcbcb"/><g fill="#ecf0f1"><path d="M172.016 160.34L153.21 44.386a4.55 4.55 0 0 0-3.095-3.574c-1.62-.522-3.397-.102-4.61 1.1L27 160.34l65.597 36.694a13.81 13.81 0 0 0 13.255 0l66.164-36.694z"/><path opacity=".2" d="M105.852 195.904a13.81 13.81 0 0 1-13.255 0l-65.484-36.58L27 160.34l65.597 36.694a13.81 13.81 0 0 0 13.255 0l66.164-36.694-.113-1.016-66.05 36.58z"/></g></svg>