<svg xmlns="http://www.w3.org/2000/svg" width="200" height="200" fill="none" xmlns:v="https://vecta.io/nano"><path fill-rule="evenodd" d="M200 0H0v199.91h200V0zM80.76 184.952c16.652 0 28.08-8.48 28.08-27.06V96.656H90.045v60.98c0 8.992-3.928 11.293-10.09 11.293-6.473 0-9.152-4.22-12.098-9.205l-15.312 8.82c4.464 8.992 13.17 16.407 28.214 16.407zm38.303-18.324c5.492 10.398 16.786 18.324 34.242 18.324 17.812 0 31.116-8.864 31.116-24.972 0-15-8.974-21.7-24.956-28.2l-4.687-1.918c-8.08-3.366-11.563-5.54-11.563-10.91 0-4.346 3.482-7.67 8.974-7.67 5.4 0 8.883 2.173 12.098 7.67l14.643-8.95c-6.16-10.397-14.733-14.36-26.697-14.36-16.74 0-27.5 10.228-27.5 23.694 0 14.616 8.973 21.562 22.545 27.06l4.687 1.918c8.616 3.622 13.706 5.795 13.706 11.932 0 5.156-5 8.863-12.768 8.863-9.24 0-14.51-4.644-18.527-10.91l-15.313 8.438z" fill="#ecf0f1"/></svg>