<svg width="200" height="200" viewBox="0 0 200 200" fill="none" xmlns="http://www.w3.org/2000/svg">
<path d="M27 160.339L51.5847 3.85278C52.2645 -0.437608 58.0425 -1.45375 60.0817 2.38502L85.4595 49.5793L95.5426 30.3855C96.3222 28.8893 97.873 27.9504 99.5646 27.9504C101.256 27.9504 102.807 28.8893 103.586 30.3855L172.016 160.339H27Z" fill="#CBCBCB"/>
<path d="M172.016 160.339L153.209 44.3858C152.928 42.7122 151.734 41.3342 150.114 40.8118C148.494 40.2895 146.717 40.7098 145.505 41.9018L27 160.339L92.597 197.033C96.7249 199.292 101.724 199.292 105.852 197.033L172.016 160.339Z" fill="#ECF0F1"/>
<path opacity="0.2" d="M105.852 195.904C101.724 198.163 96.7249 198.163 92.597 195.904L27.1133 159.323L27 160.339L92.597 197.033C96.7249 199.292 101.724 199.292 105.852 197.033L172.016 160.339L171.903 159.323L105.852 195.904Z" fill="#ECF0F1"/>
</svg>
