<svg width="200" height="200" viewBox="0 0 200 200" fill="none" xmlns="http://www.w3.org/2000/svg">
<path fill-rule="evenodd" clip-rule="evenodd" d="M200 0H0V199.909H200V0ZM80.7589 184.952C97.4107 184.952 108.839 176.472 108.839 157.892V96.6562H90.0446V157.636C90.0446 166.628 86.1161 168.929 79.9554 168.929C73.4821 168.929 70.8036 164.71 67.8571 159.724L52.5446 168.545C57.0089 177.537 65.7143 184.952 80.7589 184.952ZM119.062 166.628C124.554 177.026 135.848 184.952 153.304 184.952C171.116 184.952 184.42 176.088 184.42 159.98C184.42 144.98 175.446 138.29 159.464 131.77L154.777 129.852C146.696 126.486 143.214 124.312 143.214 118.943C143.214 114.597 146.696 111.273 152.188 111.273C157.589 111.273 161.071 113.446 164.286 118.943L178.929 109.994C172.768 99.5966 164.196 95.6335 152.232 95.6335C135.491 95.6335 124.732 105.861 124.732 119.327C124.732 133.943 133.705 140.889 147.277 146.386L151.964 148.304C160.58 151.926 165.67 154.099 165.67 160.236C165.67 165.392 160.67 169.099 152.902 169.099C143.661 169.099 138.393 164.455 134.375 158.19L119.062 166.628Z" fill="#ECF0F1"/>
</svg>
