<svg width="200" height="200" viewBox="0 0 200 200" fill="none" xmlns="http://www.w3.org/2000/svg">
<g clip-path="url(#clip0)">
<path fill-rule="evenodd" clip-rule="evenodd" d="M186.205 100.768C156.505 101.349 162.689 120.154 141.759 124.911C120.495 129.743 117.136 72.973 95.877 72.973C74.6162 72.973 69.9095 128.116 43.2851 165.977L42.5284 167.05L99.6027 200L186.205 150V100.768Z" fill="#CBCBCB"/>
<path fill-rule="evenodd" clip-rule="evenodd" d="M186.205 99.0541C176.259 86.2919 169.516 71.6216 155.008 71.6216C129.332 71.6216 136.089 113.514 107.711 113.514C79.3324 113.514 76.35 68.4514 44.1973 110.811C33.9541 124.308 25.7081 139.357 19.2311 153.597L99.6027 200L186.205 150V99.0541Z" fill="#ECF0F1"/>
<path fill-rule="evenodd" clip-rule="evenodd" d="M13 116.409C22.7432 89.423 26.95 67.5676 45.5486 67.5676C73.927 67.5676 80.6838 147.297 105.008 139.189C129.332 131.081 126.63 87.8378 164.468 87.8378C171.67 87.8378 179.024 92.2473 186.205 99.3865V150L99.6027 200L13 150V116.409V116.409Z" fill="#CBCBCB"/>
<path fill-rule="evenodd" clip-rule="evenodd" d="M99.6027 0L186.205 50V150L99.6027 200L13 150V50L99.6027 0Z" stroke="#ECF0F1" stroke-width="8"/>
</g>
<defs>
<clipPath id="clip0">
<rect width="200" height="200" fill="white"/>
</clipPath>
</defs>
</svg>
