<svg width="200" height="200" viewBox="0 0 200 200" fill="none" xmlns="http://www.w3.org/2000/svg">
<path d="M0 100V200H100H200V100V-1.15484e-05H100H0V100ZM161.175 92.0317C166.254 93.3016 170.127 95.5555 173.683 99.2381C175.524 101.206 178.254 104.794 178.476 105.651C178.54 105.905 169.841 111.746 164.571 115.016C164.381 115.143 163.619 114.317 162.762 113.048C160.19 109.302 157.492 107.683 153.365 107.397C147.302 106.984 143.397 110.159 143.429 115.46C143.429 117.016 143.651 117.937 144.286 119.206C145.619 121.968 148.095 123.619 155.873 126.984C170.19 133.143 176.317 137.206 180.127 142.984C184.381 149.429 185.333 159.714 182.444 167.365C179.27 175.683 171.397 181.333 160.317 183.206C156.889 183.81 148.762 183.714 145.079 183.048C137.048 181.619 129.429 177.651 124.73 172.444C122.889 170.413 119.302 165.111 119.524 164.73C119.619 164.603 120.444 164.095 121.365 163.556C122.254 163.048 125.619 161.111 128.794 159.27L134.54 155.937L135.746 157.714C137.429 160.286 141.111 163.81 143.333 164.984C149.714 168.349 158.476 167.873 162.794 164C164.635 162.317 165.397 160.571 165.397 158C165.397 155.683 165.111 154.667 163.905 152.921C162.349 150.698 159.175 148.825 150.159 144.921C139.841 140.476 135.397 137.714 131.333 133.333C128.984 130.794 126.762 126.73 125.841 123.333C125.079 120.508 124.889 113.429 125.492 110.571C127.619 100.603 135.143 93.6508 146 91.5873C149.524 90.9206 157.714 91.1746 161.175 92.0317ZM114.222 100.381L114.286 108.571H101.27H88.254V145.556V182.54H79.0476H69.8413V145.556V108.571H56.8254H43.8095V100.54C43.8095 96.0952 43.9048 92.3809 44.0317 92.2857C44.127 92.1587 59.9683 92.0952 79.1746 92.127L114.127 92.2222L114.222 100.381Z" fill="#ECF0F1"/>
</svg>
